<svg width="20" height="15" viewBox="0 0 20 15" fill="none" xmlns="http://www.w3.org/2000/svg">
<g clip-path="url(#clip0_1701_172)">
<path d="M3.75 0.71582L16.25 14.2849" stroke="black" stroke-width="1.5" stroke-linecap="round" stroke-linejoin="round"/>
<path d="M12.1012 9.78192C11.5277 10.3004 10.7774 10.5866 9.99967 10.5837C9.36894 10.5837 8.75299 10.3952 8.23279 10.0433C7.7126 9.69127 7.31252 9.19218 7.08513 8.6116C6.85775 8.03102 6.81372 7.39613 6.95882 6.79039C7.10392 6.18466 7.43136 5.63643 7.8981 5.21777" stroke="black" stroke-width="1.5" stroke-linecap="round" stroke-linejoin="round"/>
<path d="M5.78125 2.9209C2.59375 4.5091 1.25 7.50046 1.25 7.50046C1.25 7.50046 3.75 13.0514 10 13.0514C11.4645 13.0632 12.9108 12.7302 14.2188 12.08" stroke="black" stroke-width="1.5" stroke-linecap="round" stroke-linejoin="round"/>
<path d="M16.2969 10.6689C18 9.16552 18.75 7.50022 18.75 7.50022C18.75 7.50022 16.25 1.94924 10 1.94924C9.45817 1.94818 8.91721 1.99202 8.38281 2.0803" stroke="black" stroke-width="1.5" stroke-linecap="round" stroke-linejoin="round"/>
<path d="M10.5859 4.46973C11.2505 4.59399 11.8561 4.9282 12.3113 5.42191C12.7665 5.91563 13.0466 6.54206 13.1094 7.20667" stroke="black" stroke-width="1.5" stroke-linecap="round" stroke-linejoin="round"/>
</g>
<defs>
<clipPath id="clip0_1701_172">
<rect width="20" height="15" fill="white"/>
</clipPath>
</defs>
</svg>
