<svg width="18" height="6" viewBox="0 0 18 6" fill="none" xmlns="http://www.w3.org/2000/svg">
<path d="M11.2499 2.57129C11.2499 3.0163 11.1179 3.45131 10.8707 3.82132C10.6234 4.19133 10.272 4.47972 9.8609 4.65002C9.44977 4.82031 8.99737 4.86487 8.56091 4.77806C8.12445 4.69124 7.72354 4.47695 7.40887 4.16228C7.0942 3.84761 6.87991 3.4467 6.79309 3.01024C6.70628 2.57378 6.75084 2.12139 6.92113 1.71025C7.09143 1.29912 7.37982 0.947715 7.74983 0.700482C8.11984 0.453249 8.55485 0.321289 8.99986 0.321289C9.5966 0.321289 10.1689 0.558342 10.5909 0.980299C11.0128 1.40226 11.2499 1.97455 11.2499 2.57129ZM2.57129 0.321289C2.12628 0.321289 1.69127 0.453249 1.32126 0.700482C0.951247 0.947715 0.662858 1.29912 0.492561 1.71025C0.322264 2.12139 0.277706 2.57378 0.364523 3.01024C0.45134 3.4467 0.665632 3.84761 0.9803 4.16228C1.29497 4.47695 1.69588 4.69124 2.13234 4.77806C2.56879 4.86487 3.02119 4.82031 3.43233 4.65002C3.84346 4.47972 4.19486 4.19133 4.4421 3.82132C4.68933 3.45131 4.82129 3.0163 4.82129 2.57129C4.82129 1.97455 4.58424 1.40226 4.16228 0.980299C3.74032 0.558342 3.16803 0.321289 2.57129 0.321289ZM15.4284 0.321289C14.9834 0.321289 14.5484 0.453249 14.1784 0.700482C13.8084 0.947715 13.52 1.29912 13.3497 1.71025C13.1794 2.12139 13.1348 2.57378 13.2217 3.01024C13.3085 3.4467 13.5228 3.84761 13.8374 4.16228C14.1521 4.47695 14.553 4.69124 14.9895 4.77806C15.4259 4.86487 15.8783 4.82031 16.2895 4.65002C16.7006 4.47972 17.052 4.19133 17.2992 3.82132C17.5465 3.45131 17.6784 3.0163 17.6784 2.57129C17.6784 2.27581 17.6202 1.98323 17.5072 1.71025C17.3941 1.43727 17.2284 1.18923 17.0194 0.980299C16.8105 0.771367 16.5625 0.605633 16.2895 0.49256C16.0165 0.379487 15.7239 0.321289 15.4284 0.321289Z" fill="white"/>
</svg>
