<svg width="120" height="29" viewBox="0 0 120 29" fill="none" xmlns="http://www.w3.org/2000/svg">
<g clip-path="url(#clip0_2175_6)">
<path fill-rule="evenodd" clip-rule="evenodd" d="M111.999 11.1795C112.602 10.535 113.304 10.2128 114.104 10.2128C114.561 10.2128 114.894 10.3323 115.102 10.5714C115.31 10.8104 115.414 11.0651 115.414 11.3353C115.414 11.6056 115.352 11.8551 115.227 12.0837C115.112 12.3124 114.884 12.5307 114.54 12.7386C114.197 12.9361 113.714 13.1232 113.091 13.2999C112.467 13.4766 111.656 13.6429 110.658 13.7989C110.949 12.6866 111.396 11.8135 111.999 11.1795ZM117.752 21.813C118.304 21.3972 118.864 20.9086 119.436 20.3473C117.936 19.3839 116.814 19.2277 114.28 19.8402C114.248 19.8483 114.215 19.8562 114.182 19.8639C113.87 19.9368 113.501 19.9731 113.075 19.9731C112.171 19.9731 111.484 19.7185 111.017 19.2092C110.56 18.6998 110.32 17.8942 110.3 16.7924C112.15 16.6053 113.683 16.3455 114.9 16.0129C116.126 15.6802 117.098 15.2749 117.815 14.7967C118.542 14.3186 119.052 13.778 119.343 13.1751C119.634 12.5619 119.78 11.8863 119.78 11.1483C119.78 10.6493 119.66 10.1504 119.42 9.65149C119.182 9.15253 118.833 8.70556 118.376 8.31061C117.919 7.9052 117.352 7.57778 116.676 7.3283C116.012 7.07884 115.248 6.9541 114.384 6.9541C113.512 6.9541 112.685 7.07884 111.906 7.3283C111.136 7.56739 110.424 7.9052 109.769 8.34181C109.125 8.77837 108.543 9.30325 108.024 9.91652C107.504 10.5194 107.062 11.1847 106.698 11.9123C106.344 12.6295 106.069 13.3987 105.872 14.2198C105.684 15.041 105.591 15.8829 105.591 16.7456C105.591 17.7747 105.747 18.7102 106.059 19.5522C106.381 20.3941 106.828 21.1165 107.4 21.7194C107.981 22.3119 108.673 22.7744 109.473 23.107C110.273 23.4292 111.152 23.5904 112.108 23.5904C112.877 23.5904 113.584 23.528 114.228 23.4033C114.884 23.2786 115.496 23.0863 116.068 22.8265C116.651 22.5561 117.212 22.2183 117.752 21.813Z" fill="white"/>
<path fill-rule="evenodd" clip-rule="evenodd" d="M18.6054 10.8357C19.2083 10.1913 19.9099 9.86901 20.7103 9.86901C21.1676 9.86901 21.5003 9.98853 21.7081 10.2276C21.9161 10.4667 22.02 10.7213 22.02 10.9916C22.02 11.2619 21.9576 11.5113 21.8328 11.74C21.7186 11.9687 21.4898 12.1869 21.1469 12.3948C20.8039 12.5924 20.3206 12.7794 19.6968 12.9561C19.0732 13.1328 18.2624 13.2992 17.2645 13.455C17.5555 12.3429 18.0025 11.4697 18.6054 10.8357ZM24.3588 21.4691C24.9096 21.0535 25.471 20.5648 26.0426 20.0036C24.5424 19.0402 23.4199 18.8839 20.8861 19.4963C20.854 19.5045 20.8214 19.5125 20.7883 19.5202C20.4764 19.5931 20.1074 19.6294 19.6812 19.6294C18.7769 19.6294 18.091 19.3747 17.6232 18.8654C17.1658 18.3561 16.9267 17.5504 16.906 16.4487C18.7561 16.2616 20.2894 16.0017 21.5054 15.6691C22.7321 15.3364 23.7038 14.931 24.4211 14.453C25.1486 13.9749 25.658 13.4343 25.949 12.8314C26.2402 12.2181 26.3856 11.5425 26.3856 10.8045C26.3856 10.3056 26.2661 9.80661 26.027 9.30774C25.788 8.80878 25.4398 8.36181 24.9824 7.96682C24.5251 7.56144 23.9585 7.23402 23.2829 6.98455C22.6176 6.73509 21.8537 6.61035 20.9909 6.61035C20.1178 6.61035 19.2914 6.73509 18.5119 6.98455C17.7427 7.22364 17.0306 7.56145 16.3758 7.99801C15.7313 8.43462 15.1493 8.9595 14.6295 9.57278C14.1098 10.1757 13.668 10.8409 13.3043 11.5685C12.9509 12.2858 12.6753 13.055 12.4778 13.876C12.2907 14.6972 12.1973 15.5392 12.1973 16.4019C12.1973 17.4309 12.3531 18.3664 12.665 19.2083C12.9872 20.0504 13.4342 20.7728 14.0059 21.3757C14.5879 21.9681 15.2792 22.4307 16.0795 22.7633C16.8799 23.0855 17.7583 23.2466 18.7146 23.2466C19.4837 23.2466 20.1906 23.1843 20.835 23.0596C21.4898 22.9348 22.1032 22.7426 22.6748 22.4827C23.257 22.2124 23.8182 21.8746 24.3588 21.4691Z" fill="white"/>
<path fill-rule="evenodd" clip-rule="evenodd" d="M85.509 10.773C86.1642 10.4196 86.8866 10.2429 87.6762 10.2429H87.973L87.3961 14.7177C87.2194 15.4141 87.0058 16.0689 86.757 16.6823C86.5074 17.2956 86.2321 17.8308 85.9306 18.2882C85.6393 18.7455 85.3273 19.1093 84.9946 19.3796C84.6618 19.6394 84.3193 19.7694 83.9658 19.7694C83.737 19.7694 83.5242 19.7174 83.3266 19.6135C83.1394 19.5096 82.9729 19.3484 82.8274 19.1301C82.6921 18.9014 82.5834 18.6053 82.5001 18.2414C82.417 17.8776 82.3754 17.4359 82.3754 16.9161C82.3754 16.0014 82.5001 15.1439 82.7497 14.3436C83.0089 13.5327 83.373 12.8259 83.841 12.2231C84.309 11.6098 84.865 11.1264 85.509 10.773ZM84.7138 22.8098C85.5354 22.2797 86.2729 21.5573 86.9281 20.6425C87.6961 22.357 88.681 22.8878 91.0753 23.3399L93.0402 7.63909C92.2705 7.36883 91.4914 7.18172 90.7009 7.0778C89.9113 6.97386 89.1322 6.92188 88.3626 6.92188C86.7826 6.92188 85.3321 7.21291 84.0121 7.79502C82.6921 8.37714 81.549 9.16187 80.5825 10.1494C79.6259 11.1368 78.8776 12.2906 78.3371 13.6106C77.8071 14.9204 77.542 16.308 77.542 17.7737C77.542 18.7716 77.6668 19.6394 77.9161 20.3774C78.1656 21.1051 78.4981 21.708 78.9141 22.1861C79.3297 22.6538 79.8081 23.0072 80.3482 23.2464C80.889 23.475 81.4506 23.5894 82.0321 23.5894C83.0089 23.5894 83.9034 23.3294 84.7138 22.8098Z" fill="white"/>
<path fill-rule="evenodd" clip-rule="evenodd" d="M72.5837 0L69.7461 23.3407C73.6406 22.1219 74.7844 20.6634 75.2429 17.3722L75.3268 16.683L76.6994 5.39112C76.8746 3.25194 75.8619 0.897472 72.5837 0Z" fill="white"/>
<path fill-rule="evenodd" clip-rule="evenodd" d="M27.7217 23.3399L29.6863 7.17134H29.7868C31.7084 7.17828 32.645 7.59433 33.7712 9.61923C34.4573 8.7045 35.1798 8.0289 35.9386 7.59232C36.6972 7.14536 37.4923 6.92188 38.3241 6.92188C39.2386 6.92188 39.9977 7.21812 40.6003 7.81061C41.2032 8.40306 41.5879 9.26586 41.7543 10.3988C42.4714 9.20346 43.2563 8.32514 44.1085 7.76383C44.9608 7.20253 45.9225 6.92188 46.993 6.92188C47.6687 6.92188 48.2767 7.057 48.8172 7.32726C49.3577 7.59752 49.8048 7.99249 50.1581 8.51226C50.5114 9.03195 50.756 9.67643 50.891 10.4456C51.0365 11.2043 51.0468 12.0775 50.922 13.065L50.2241 18.9629C49.8209 22.3498 48.6852 23.3364 44.9751 23.3399H44.9349L46.1511 13.065C46.2031 12.6284 46.2187 12.2594 46.1979 11.9579C46.1875 11.6565 46.1407 11.4175 46.0575 11.2408C45.9849 11.064 45.8757 10.9393 45.7301 10.8666C45.5844 10.7834 45.4129 10.7419 45.2155 10.7419C44.8935 10.7419 44.5816 10.8302 44.28 11.0069C43.9891 11.1732 43.7085 11.4227 43.4381 11.7553C43.1783 12.0775 42.9391 12.4725 42.7209 12.9403C42.5026 13.3976 42.3102 13.9122 42.144 14.4839L41.617 18.9509L41.616 18.9599L41.6155 18.9629C41.2235 22.2737 40.134 23.318 36.5631 23.3399H36.3283L37.5444 13.065C37.5965 12.6284 37.6121 12.2594 37.5912 11.9579C37.5809 11.6565 37.5341 11.4175 37.4509 11.2408C37.3782 11.064 37.2691 10.9393 37.1235 10.8666C36.9779 10.7834 36.8064 10.7419 36.6089 10.7419C36.2868 10.7419 35.9751 10.8302 35.6734 11.0069C35.3719 11.1836 35.0863 11.4383 34.8158 11.7709C34.5562 12.1035 34.3169 12.5089 34.0987 12.9871C33.8803 13.4547 33.6881 13.9797 33.5218 14.5617L32.9916 18.9509C32.3009 22.2934 31.0798 23.1769 27.7217 23.3399Z" fill="white"/>
<path fill-rule="evenodd" clip-rule="evenodd" d="M57.8401 19.364C58.1414 19.6031 58.4741 19.7745 58.838 19.8785C59.2121 19.9825 59.5655 20.0345 59.8983 20.0345C60.4595 20.0345 60.974 19.8474 61.4417 19.4731C61.9198 19.0989 62.3305 18.6104 62.6735 18.0075C63.0166 17.3942 63.2816 16.6979 63.4688 15.9182C63.6661 15.1387 63.7649 14.3436 63.7649 13.5327C63.7649 12.5037 63.614 11.7553 63.3128 11.2875C63.0113 10.8198 62.6111 10.5859 62.1123 10.5859C61.7795 10.5859 61.4312 10.7159 61.0676 10.9757C60.7141 11.2251 60.3659 11.5682 60.023 12.0048C59.6902 12.4413 59.3732 12.9559 59.0719 13.5483C58.7806 14.1408 58.5311 14.7749 58.3234 15.4505L57.8401 19.364ZM58.6821 10.1338C59.4305 9.13586 60.2516 8.35115 61.1456 7.77942C62.0499 7.20774 63.0166 6.92188 64.0456 6.92188C64.7108 6.92188 65.3188 7.04141 65.8699 7.28048C66.4205 7.50916 66.8936 7.87297 67.2886 8.37186C67.694 8.87082 68.0059 9.51011 68.2241 10.2897C68.4527 11.0589 68.5672 11.9787 68.5672 13.0494C68.5672 14.4631 68.3489 15.8091 67.9124 17.0876C67.4861 18.3558 66.9092 19.4731 66.1816 20.4398C65.4538 21.4065 64.6119 22.1757 63.6557 22.7474C62.7097 23.3087 61.7171 23.5893 60.6778 23.5893C60.0124 23.5893 59.4097 23.4801 58.8692 23.262C58.339 23.0436 57.8713 22.7526 57.4659 22.3889C56.5945 26.7695 55.3607 28.0388 52.0088 28.4695L54.5971 7.17134C57.0407 7.69753 58.0205 8.28275 58.6821 10.1338Z" fill="white"/>
<path fill-rule="evenodd" clip-rule="evenodd" d="M95.5575 19.8485V19.5836C95.5575 19.4796 95.5623 19.3341 95.5726 19.147C95.5935 18.9495 95.6199 18.6948 95.6511 18.383C95.6926 18.0608 95.7447 17.6398 95.8071 17.1201L96.6334 10.5092C95.1934 9.97047 94.8727 9.30015 94.8711 7.67151L97.3191 7.17257L97.8703 5.57164C98.8647 3.09597 100.005 2.49998 102.119 2.47949H102.355L101.763 7.20375H105.38C105.073 9.66646 104.308 10.4954 101.502 10.5092H101.357L100.578 16.855C100.526 17.2812 100.485 17.6189 100.453 17.8685C100.422 18.1076 100.396 18.2946 100.375 18.4298C100.365 18.5544 100.36 18.6428 100.36 18.6948V18.7728C100.36 19.0743 100.427 19.3289 100.562 19.5368C100.708 19.7343 100.932 19.833 101.233 19.833C102.773 20.0122 103.259 20.6115 103.781 21.697L104.008 22.1873C103.364 22.6551 102.673 23.0085 101.934 23.2476C101.197 23.4762 100.453 23.5906 99.7047 23.5906C99.0814 23.5906 98.5198 23.5074 98.0206 23.3411C97.5222 23.1644 97.0903 22.915 96.727 22.5927C96.3735 22.26 96.0927 21.8651 95.8846 21.4078C95.6871 20.9504 95.5783 20.4308 95.5575 19.8485Z" fill="white"/>
<path fill-rule="evenodd" clip-rule="evenodd" d="M9.23152 17.958L10.883 4.5793C15.2437 4.44749 16.5013 3.47186 17.182 0.556641H5.80009C1.66228 0.617615 0.42301 1.5227 0 4.5793H5.80009L3.52372 23.2736C7.28837 22.8092 8.73009 21.8467 9.23152 17.958Z" fill="white"/>
</g>
<defs>
<clipPath id="clip0_2175_6">
<rect width="120" height="28.8" fill="white"/>
</clipPath>
</defs>
</svg>
