<svg width="18" height="18" viewBox="0 0 18 18" fill="none" xmlns="http://www.w3.org/2000/svg">
<g clip-path="url(#clip0_2873_40)">
<path d="M17.397 16.0325L13.5808 12.2147C14.725 10.7237 15.2592 8.85323 15.075 6.98279C14.8909 5.11236 14.0021 3.38201 12.5891 2.14276C11.176 0.903509 9.3445 0.248151 7.46603 0.309629C5.58756 0.371107 3.8028 1.14482 2.47381 2.47381C1.14482 3.8028 0.371107 5.58756 0.309629 7.46603C0.248151 9.3445 0.903509 11.176 2.14276 12.5891C3.38201 14.0021 5.11236 14.8909 6.98279 15.075C8.85323 15.2592 10.7237 14.725 12.2147 13.5808L16.0341 17.401C16.1238 17.4907 16.2303 17.5618 16.3475 17.6104C16.4647 17.6589 16.5903 17.6839 16.7171 17.6839C16.844 17.6839 16.9696 17.6589 17.0868 17.6104C17.204 17.5618 17.3105 17.4907 17.4002 17.401C17.4899 17.3113 17.561 17.2048 17.6096 17.0876C17.6581 16.9704 17.6831 16.8448 17.6831 16.7179C17.6831 16.5911 17.6581 16.4655 17.6096 16.3483C17.561 16.2311 17.4899 16.1246 17.4002 16.0349L17.397 16.0325ZM2.25045 7.71473C2.25045 6.634 2.57092 5.57754 3.17135 4.67894C3.77177 3.78034 4.62517 3.07997 5.62364 2.66639C6.62211 2.25281 7.7208 2.1446 8.78076 2.35544C9.84073 2.56628 10.8144 3.08671 11.5786 3.8509C12.3428 4.61509 12.8632 5.58874 13.074 6.6487C13.2849 7.70867 13.1767 8.80736 12.7631 9.80583C12.3495 10.8043 11.6491 11.6577 10.7505 12.2581C9.85193 12.8585 8.79547 13.179 7.71473 13.179C6.26597 13.1775 4.87697 12.6014 3.85254 11.5769C2.82812 10.5525 2.25194 9.1635 2.25045 7.71473Z" fill="white"/>
</g>
<defs>
<clipPath id="clip0_2873_40">
<rect width="18" height="18" fill="white"/>
</clipPath>
</defs>
</svg>
